<svg width="462" height="138" viewBox="0 0 462 138" fill="none" xmlns="http://www.w3.org/2000/svg">
<path d="M89.888 66.64L89.024 48.688L121.184 14.8H138.464L109.472 46L100.832 55.216L89.888 66.64ZM75.968 82V14.8H91.424V82H75.968ZM121.952 82L98.048 52.72L108.224 41.68L140.096 82H121.952ZM168.394 82.768C162.89 82.768 157.994 81.616 153.706 79.312C149.482 77.008 146.122 73.872 143.626 69.904C141.194 65.872 139.978 61.296 139.978 56.176C139.978 50.992 141.194 46.416 143.626 42.448C146.122 38.416 149.482 35.28 153.706 33.04C157.994 30.736 162.89 29.584 168.394 29.584C173.834 29.584 178.698 30.736 182.986 33.04C187.274 35.28 190.634 38.384 193.066 42.352C195.498 46.32 196.714 50.928 196.714 56.176C196.714 61.296 195.498 65.872 193.066 69.904C190.634 73.872 187.274 77.008 182.986 79.312C178.698 81.616 173.834 82.768 168.394 82.768ZM168.394 70.48C170.89 70.48 173.13 69.904 175.114 68.752C177.098 67.6 178.666 65.968 179.818 63.856C180.97 61.68 181.546 59.12 181.546 56.176C181.546 53.168 180.97 50.608 179.818 48.496C178.666 46.384 177.098 44.752 175.114 43.6C173.13 42.448 170.89 41.872 168.394 41.872C165.898 41.872 163.658 42.448 161.674 43.6C159.69 44.752 158.09 46.384 156.874 48.496C155.722 50.608 155.146 53.168 155.146 56.176C155.146 59.12 155.722 61.68 156.874 63.856C158.09 65.968 159.69 67.6 161.674 68.752C163.658 69.904 165.898 70.48 168.394 70.48ZM206.725 82V10.768H221.701V82H206.725ZM261.232 82.768C255.344 82.768 250.16 81.616 245.68 79.312C241.264 77.008 237.84 73.872 235.408 69.904C232.976 65.872 231.76 61.296 231.76 56.176C231.76 50.992 232.944 46.416 235.312 42.448C237.744 38.416 241.04 35.28 245.2 33.04C249.36 30.736 254.064 29.584 259.312 29.584C264.368 29.584 268.912 30.672 272.944 32.848C277.04 34.96 280.272 38.032 282.64 42.064C285.008 46.032 286.192 50.8 286.192 56.368C286.192 56.944 286.16 57.616 286.096 58.384C286.032 59.088 285.968 59.76 285.904 60.4H243.952V51.664H278.031L272.272 54.256C272.272 51.568 271.728 49.232 270.64 47.248C269.552 45.264 268.048 43.728 266.128 42.64C264.208 41.488 261.968 40.912 259.408 40.912C256.848 40.912 254.576 41.488 252.592 42.64C250.672 43.728 249.168 45.296 248.08 47.344C246.992 49.328 246.448 51.696 246.448 54.448V56.752C246.448 59.568 247.056 62.064 248.272 64.24C249.552 66.352 251.312 67.984 253.552 69.136C255.856 70.224 258.544 70.768 261.616 70.768C264.368 70.768 266.768 70.352 268.816 69.52C270.928 68.688 272.848 67.44 274.576 65.776L282.544 74.416C280.176 77.104 277.2 79.184 273.616 80.656C270.032 82.064 265.904 82.768 261.232 82.768ZM362.306 29.584C366.402 29.584 370.018 30.416 373.154 32.08C376.354 33.68 378.85 36.176 380.642 39.568C382.498 42.896 383.426 47.184 383.426 52.432V82H368.45V54.736C368.45 50.576 367.586 47.504 365.858 45.52C364.13 43.536 361.698 42.544 358.562 42.544C356.386 42.544 354.434 43.056 352.706 44.08C350.978 45.04 349.634 46.512 348.674 48.496C347.714 50.48 347.234 53.008 347.234 56.08V82H332.258V54.736C332.258 50.576 331.394 47.504 329.666 45.52C328.002 43.536 325.602 42.544 322.466 42.544C320.29 42.544 318.338 43.056 316.61 44.08C314.882 45.04 313.538 46.512 312.578 48.496C311.618 50.48 311.138 53.008 311.138 56.08V82H296.162V30.352H310.466V44.464L307.778 40.336C309.57 36.816 312.098 34.16 315.362 32.368C318.69 30.512 322.466 29.584 326.69 29.584C331.426 29.584 335.554 30.8 339.074 33.232C342.658 35.6 345.026 39.248 346.178 44.176L340.898 42.736C342.626 38.704 345.378 35.504 349.154 33.136C352.994 30.768 357.378 29.584 362.306 29.584ZM408.502 46.864C405.366 46.864 402.518 46.16 399.958 44.752C397.398 43.28 395.35 41.296 393.814 38.8C392.342 36.304 391.605 33.52 391.605 30.448C391.605 27.376 392.342 24.592 393.814 22.096C395.35 19.6 397.398 17.616 399.958 16.144C402.518 14.672 405.366 13.936 408.502 13.936C411.638 13.936 414.454 14.672 416.95 16.144C419.51 17.616 421.526 19.6 422.998 22.096C424.534 24.592 425.302 27.376 425.302 30.448C425.302 33.52 424.534 36.304 422.998 38.8C421.526 41.232 419.51 43.184 416.95 44.656C414.454 46.128 411.638 46.864 408.502 46.864ZM408.502 39.472C410.166 39.472 411.67 39.088 413.014 38.32C414.358 37.488 415.414 36.4 416.182 35.056C416.95 33.712 417.334 32.176 417.334 30.448C417.334 28.72 416.95 27.184 416.182 25.84C415.414 24.432 414.358 23.344 413.014 22.576C411.67 21.808 410.166 21.424 408.502 21.424C406.774 21.424 405.238 21.808 403.894 22.576C402.55 23.344 401.494 24.4 400.726 25.744C399.958 27.088 399.574 28.656 399.574 30.448C399.574 32.176 399.958 33.712 400.726 35.056C401.494 36.4 402.55 37.488 403.894 38.32C405.238 39.088 406.774 39.472 408.502 39.472Z" fill="#7280FF"/>
<path d="M29.25 16.9063C26.105 16.9063 23.0889 18.211 20.8651 20.5332C18.6412 22.8554 17.3919 26.0051 17.3919 29.2892V79.5044L15.8614 80.9739C12.9348 83.7878 10.8895 87.4586 9.99314 91.5062C9.09676 95.5537 9.39097 99.7895 10.8373 103.66C12.2836 107.53 14.8148 110.854 18.0996 113.197C21.3845 115.541 25.2701 116.795 29.2484 116.795C33.2267 116.795 37.1124 115.541 40.3972 113.197C43.6821 110.854 46.2132 107.53 47.6595 103.66C49.1059 99.7895 49.4001 95.5537 48.5037 91.5062C47.6073 87.4586 45.562 83.7878 42.6354 80.9739L41.1081 79.5044V29.2892C41.1081 26.0051 39.8588 22.8554 37.6349 20.5332C35.4111 18.211 32.395 16.9063 29.25 16.9063ZM7.90542 29.2892C7.90542 23.3778 10.1542 17.7084 14.1571 13.5284C18.16 9.34832 23.5891 7 29.25 7C34.9109 7 40.34 9.34832 44.3429 13.5284C48.3458 17.7084 50.5946 23.3778 50.5946 29.2892V75.2711C54.4947 79.6178 57.0926 85.0604 58.0686 90.9291C59.0446 96.7978 58.3561 102.836 56.0878 108.302C53.8196 113.767 50.0705 118.421 45.3021 121.689C40.5337 124.958 34.9541 126.7 29.25 126.7C23.5459 126.7 17.9663 124.958 13.1979 121.689C8.4295 118.421 4.68044 113.767 2.41216 108.302C0.143879 102.836 -0.544629 96.7978 0.431382 90.9291C1.40739 85.0604 4.00533 79.6178 7.90542 75.2711V29.2892ZM41.8986 96.157C41.8975 98.5532 41.2722 100.904 40.0896 102.958C38.9071 105.011 37.2118 106.69 35.1854 107.815C33.159 108.939 30.8778 109.467 28.5863 109.341C26.2947 109.215 24.0791 108.441 22.1767 107.101C20.2743 105.761 18.7569 103.906 17.7869 101.734C16.8169 99.5622 16.431 97.1559 16.6704 94.7726C16.9098 92.3894 17.7655 90.1191 19.146 88.2049C20.5264 86.2907 22.3795 84.8047 24.5068 83.9061V48.2764C24.5068 46.9627 25.0065 45.7029 25.896 44.774C26.7856 43.8451 27.992 43.3232 29.25 43.3232C30.508 43.3232 31.7144 43.8451 32.604 44.774C33.4935 45.7029 33.9932 46.9627 33.9932 48.2764V83.9061C36.3299 84.8932 38.3308 86.5867 39.7394 88.7695C41.1479 90.9523 41.8998 93.5248 41.8986 96.157Z" fill="#7280FF"/>
<path d="M41.8986 96.157C41.8975 98.5532 41.2722 100.904 40.0896 102.958C38.907 105.011 37.2117 106.69 35.1853 107.815C33.159 108.939 30.8778 109.467 28.5862 109.341C26.2947 109.215 24.0791 108.441 22.1767 107.101C20.2743 105.761 18.7568 103.906 17.7869 101.734C16.8169 99.5622 16.4309 97.1559 16.6704 94.7727C16.9098 92.3894 17.7655 90.1191 19.1459 88.2049C20.5264 86.2907 22.3795 84.8047 24.5067 83.9061V48.2764C24.5067 46.9627 25.0065 45.7029 25.896 44.774C26.7855 43.8451 27.992 43.3232 29.25 43.3232C30.508 43.3232 31.7144 43.8451 32.6039 44.774C33.4935 45.7029 33.9932 46.9627 33.9932 48.2764V83.9061C36.3298 84.8932 38.3308 86.5867 39.7393 88.7695C41.1479 90.9523 41.8998 93.5248 41.8986 96.157Z" fill="#FF7272"/>
<path d="M84.12 118.6L83.76 111.12L97.16 97H104.36L92.28 110L88.68 113.84L84.12 118.6ZM78.32 125V97H84.76V125H78.32ZM97.48 125L87.52 112.8L91.76 108.2L105.04 125H97.48ZM116.831 125.32C114.538 125.32 112.498 124.84 110.711 123.88C108.951 122.92 107.551 121.613 106.511 119.96C105.498 118.28 104.991 116.373 104.991 114.24C104.991 112.08 105.498 110.173 106.511 108.52C107.551 106.84 108.951 105.533 110.711 104.6C112.498 103.64 114.538 103.16 116.831 103.16C119.098 103.16 121.124 103.64 122.911 104.6C124.698 105.533 126.098 106.827 127.111 108.48C128.124 110.133 128.631 112.053 128.631 114.24C128.631 116.373 128.124 118.28 127.111 119.96C126.098 121.613 124.698 122.92 122.911 123.88C121.124 124.84 119.098 125.32 116.831 125.32ZM116.831 120.2C117.871 120.2 118.804 119.96 119.631 119.48C120.458 119 121.111 118.32 121.591 117.44C122.071 116.533 122.311 115.467 122.311 114.24C122.311 112.987 122.071 111.92 121.591 111.04C121.111 110.16 120.458 109.48 119.631 109C118.804 108.52 117.871 108.28 116.831 108.28C115.791 108.28 114.858 108.52 114.031 109C113.204 109.48 112.538 110.16 112.031 111.04C111.551 111.92 111.311 112.987 111.311 114.24C111.311 115.467 111.551 116.533 112.031 117.44C112.538 118.32 113.204 119 114.031 119.48C114.858 119.96 115.791 120.2 116.831 120.2ZM145.882 103.16C147.589 103.16 149.109 103.507 150.442 104.2C151.802 104.867 152.869 105.907 153.642 107.32C154.415 108.707 154.802 110.493 154.802 112.68V125H148.562V113.64C148.562 111.907 148.175 110.627 147.402 109.8C146.655 108.973 145.589 108.56 144.202 108.56C143.215 108.56 142.322 108.773 141.522 109.2C140.749 109.6 140.135 110.227 139.682 111.08C139.255 111.933 139.042 113.027 139.042 114.36V125H132.802V103.48H138.762V109.44L137.642 107.64C138.415 106.2 139.522 105.093 140.962 104.32C142.402 103.547 144.042 103.16 145.882 103.16ZM165.908 125L156.867 103.48H163.308L170.828 122H167.628L175.428 103.48H181.428L172.348 125H165.908ZM194.068 125.32C191.614 125.32 189.454 124.84 187.588 123.88C185.748 122.92 184.321 121.613 183.308 119.96C182.294 118.28 181.788 116.373 181.788 114.24C181.788 112.08 182.281 110.173 183.268 108.52C184.281 106.84 185.654 105.533 187.388 104.6C189.121 103.64 191.081 103.16 193.268 103.16C195.374 103.16 197.268 103.613 198.948 104.52C200.654 105.4 202.001 106.68 202.988 108.36C203.974 110.013 204.468 112 204.468 114.32C204.468 114.56 204.454 114.84 204.428 115.16C204.401 115.453 204.374 115.733 204.348 116H186.868V112.36H201.068L198.668 113.44C198.668 112.32 198.441 111.347 197.988 110.52C197.534 109.693 196.908 109.053 196.108 108.6C195.308 108.12 194.374 107.88 193.308 107.88C192.241 107.88 191.294 108.12 190.468 108.6C189.668 109.053 189.041 109.707 188.588 110.56C188.134 111.387 187.908 112.373 187.908 113.52V114.48C187.908 115.653 188.161 116.693 188.668 117.6C189.201 118.48 189.934 119.16 190.868 119.64C191.828 120.093 192.948 120.32 194.228 120.32C195.374 120.32 196.374 120.147 197.228 119.8C198.108 119.453 198.908 118.933 199.628 118.24L202.948 121.84C201.961 122.96 200.721 123.827 199.228 124.44C197.734 125.027 196.014 125.32 194.068 125.32ZM208.622 125V103.48H214.582V109.56L213.742 107.8C214.382 106.28 215.409 105.133 216.822 104.36C218.236 103.56 219.956 103.16 221.982 103.16V108.92C221.716 108.893 221.476 108.88 221.262 108.88C221.049 108.853 220.822 108.84 220.582 108.84C218.876 108.84 217.489 109.333 216.422 110.32C215.382 111.28 214.862 112.787 214.862 114.84V125H208.622ZM235.235 125.32C232.701 125.32 230.728 124.68 229.315 123.4C227.901 122.093 227.195 120.16 227.195 117.6V98.72H233.435V117.52C233.435 118.427 233.675 119.133 234.155 119.64C234.635 120.12 235.288 120.36 236.115 120.36C237.101 120.36 237.941 120.093 238.635 119.56L240.315 123.96C239.675 124.413 238.901 124.76 237.995 125C237.115 125.213 236.195 125.32 235.235 125.32ZM223.875 108.76V103.96H238.795V108.76H223.875ZM253.833 125.32C251.38 125.32 249.22 124.84 247.353 123.88C245.513 122.92 244.087 121.613 243.073 119.96C242.06 118.28 241.553 116.373 241.553 114.24C241.553 112.08 242.047 110.173 243.033 108.52C244.047 106.84 245.42 105.533 247.153 104.6C248.887 103.64 250.847 103.16 253.033 103.16C255.14 103.16 257.033 103.613 258.713 104.52C260.42 105.4 261.767 106.68 262.753 108.36C263.74 110.013 264.233 112 264.233 114.32C264.233 114.56 264.22 114.84 264.193 115.16C264.167 115.453 264.14 115.733 264.113 116H246.633V112.36H260.833L258.433 113.44C258.433 112.32 258.207 111.347 257.753 110.52C257.3 109.693 256.673 109.053 255.873 108.6C255.073 108.12 254.14 107.88 253.073 107.88C252.007 107.88 251.06 108.12 250.233 108.6C249.433 109.053 248.807 109.707 248.353 110.56C247.9 111.387 247.673 112.373 247.673 113.52V114.48C247.673 115.653 247.927 116.693 248.433 117.6C248.967 118.48 249.7 119.16 250.633 119.64C251.593 120.093 252.713 120.32 253.993 120.32C255.14 120.32 256.14 120.147 256.993 119.8C257.873 119.453 258.673 118.933 259.393 118.24L262.713 121.84C261.727 122.96 260.487 123.827 258.993 124.44C257.5 125.027 255.78 125.32 253.833 125.32ZM268.388 125V103.48H274.348V109.56L273.508 107.8C274.148 106.28 275.174 105.133 276.588 104.36C278.001 103.56 279.721 103.16 281.748 103.16V108.92C281.481 108.893 281.241 108.88 281.028 108.88C280.814 108.853 280.588 108.84 280.348 108.84C278.641 108.84 277.254 109.333 276.188 110.32C275.148 111.28 274.628 112.787 274.628 114.84V125H268.388ZM303.183 125V102.28H294.223V97H318.623V102.28H309.663V125H303.183ZM330.162 125.32C327.708 125.32 325.548 124.84 323.682 123.88C321.842 122.92 320.415 121.613 319.402 119.96C318.388 118.28 317.882 116.373 317.882 114.24C317.882 112.08 318.375 110.173 319.362 108.52C320.375 106.84 321.748 105.533 323.482 104.6C325.215 103.64 327.175 103.16 329.362 103.16C331.468 103.16 333.362 103.613 335.042 104.52C336.748 105.4 338.095 106.68 339.082 108.36C340.068 110.013 340.562 112 340.562 114.32C340.562 114.56 340.548 114.84 340.522 115.16C340.495 115.453 340.468 115.733 340.442 116H322.962V112.36H337.162L334.762 113.44C334.762 112.32 334.535 111.347 334.082 110.52C333.628 109.693 333.002 109.053 332.202 108.6C331.402 108.12 330.468 107.88 329.402 107.88C328.335 107.88 327.388 108.12 326.562 108.6C325.762 109.053 325.135 109.707 324.682 110.56C324.228 111.387 324.002 112.373 324.002 113.52V114.48C324.002 115.653 324.255 116.693 324.762 117.6C325.295 118.48 326.028 119.16 326.962 119.64C327.922 120.093 329.042 120.32 330.322 120.32C331.468 120.32 332.468 120.147 333.322 119.8C334.202 119.453 335.002 118.933 335.722 118.24L339.042 121.84C338.055 122.96 336.815 123.827 335.322 124.44C333.828 125.027 332.108 125.32 330.162 125.32ZM372.276 103.16C373.983 103.16 375.489 103.507 376.796 104.2C378.129 104.867 379.169 105.907 379.916 107.32C380.689 108.707 381.076 110.493 381.076 112.68V125H374.836V113.64C374.836 111.907 374.476 110.627 373.756 109.8C373.036 108.973 372.023 108.56 370.716 108.56C369.809 108.56 368.996 108.773 368.276 109.2C367.556 109.6 366.996 110.213 366.596 111.04C366.196 111.867 365.996 112.92 365.996 114.2V125H359.756V113.64C359.756 111.907 359.396 110.627 358.676 109.8C357.983 108.973 356.983 108.56 355.676 108.56C354.769 108.56 353.956 108.773 353.236 109.2C352.516 109.6 351.956 110.213 351.556 111.04C351.156 111.867 350.956 112.92 350.956 114.2V125H344.716V103.48H350.676V109.36L349.556 107.64C350.303 106.173 351.356 105.067 352.716 104.32C354.103 103.547 355.676 103.16 357.436 103.16C359.409 103.16 361.129 103.667 362.596 104.68C364.089 105.667 365.076 107.187 365.556 109.24L363.356 108.64C364.076 106.96 365.223 105.627 366.796 104.64C368.396 103.653 370.223 103.16 372.276 103.16ZM399.389 125.32C397.576 125.32 395.989 124.92 394.629 124.12C393.269 123.32 392.202 122.107 391.429 120.48C390.682 118.827 390.309 116.747 390.309 114.24C390.309 111.707 390.669 109.627 391.389 108C392.109 106.373 393.149 105.16 394.509 104.36C395.869 103.56 397.496 103.16 399.389 103.16C401.416 103.16 403.229 103.627 404.829 104.56C406.456 105.467 407.736 106.747 408.669 108.4C409.629 110.053 410.109 112 410.109 114.24C410.109 116.507 409.629 118.467 408.669 120.12C407.736 121.773 406.456 123.053 404.829 123.96C403.229 124.867 401.416 125.32 399.389 125.32ZM386.669 132.76V103.48H392.629V107.88L392.509 114.28L392.909 120.64V132.76H386.669ZM398.309 120.2C399.349 120.2 400.269 119.96 401.069 119.48C401.896 119 402.549 118.32 403.029 117.44C403.536 116.533 403.789 115.467 403.789 114.24C403.789 112.987 403.536 111.92 403.029 111.04C402.549 110.16 401.896 109.48 401.069 109C400.269 108.52 399.349 108.28 398.309 108.28C397.269 108.28 396.336 108.52 395.509 109C394.682 109.48 394.029 110.16 393.549 111.04C393.069 111.92 392.829 112.987 392.829 114.24C392.829 115.467 393.069 116.533 393.549 117.44C394.029 118.32 394.682 119 395.509 119.48C396.336 119.96 397.269 120.2 398.309 120.2Z" fill="#6168A9"/>
</svg>
