<svg width="59" height="120" viewBox="0 0 59 120" fill="none" xmlns="http://www.w3.org/2000/svg">
<path d="M29.25 9.90633C26.105 9.90633 23.0889 11.211 20.8651 13.5332C18.6412 15.8554 17.3919 19.0051 17.3919 22.2892V72.5044L15.8614 73.9739C12.9348 76.7878 10.8895 80.4587 9.99314 84.5062C9.09675 88.5537 9.39097 92.7895 10.8373 96.6595C12.2836 100.53 14.8148 103.854 18.0996 106.197C21.3845 108.541 25.2701 109.795 29.2484 109.795C33.2267 109.795 37.1124 108.541 40.3972 106.197C43.6821 103.854 46.2132 100.53 47.6595 96.6595C49.1059 92.7895 49.4001 88.5537 48.5037 84.5062C47.6073 80.4587 45.562 76.7878 42.6354 73.9739L41.1081 72.5044V22.2892C41.1081 19.0051 39.8588 15.8554 37.6349 13.5332C35.4111 11.211 32.395 9.90633 29.25 9.90633ZM7.90542 22.2892C7.90542 16.3778 10.1542 10.7084 14.1571 6.52837C18.16 2.34832 23.5891 0 29.25 0C34.9109 0 40.34 2.34832 44.3429 6.52837C48.3458 10.7084 50.5946 16.3778 50.5946 22.2892V68.2711C54.4947 72.6178 57.0926 78.0604 58.0686 83.9291C59.0446 89.7978 58.3561 95.8364 56.0878 101.302C53.8196 106.767 50.0705 111.421 45.3021 114.689C40.5337 117.958 34.9541 119.7 29.25 119.7C23.5459 119.7 17.9663 117.958 13.1979 114.689C8.4295 111.421 4.68044 106.767 2.41216 101.302C0.143879 95.8364 -0.544629 89.7978 0.431382 83.9291C1.40739 78.0604 4.00533 72.6178 7.90542 68.2711V22.2892ZM41.8986 89.157C41.8975 91.5532 41.2722 93.9041 40.0896 95.9576C38.9071 98.0112 37.2118 99.6901 35.1854 100.815C33.159 101.939 30.8778 102.467 28.5863 102.341C26.2947 102.215 24.0791 101.441 22.1767 100.101C20.2743 98.7608 18.7569 96.9055 17.7869 94.7339C16.8169 92.5622 16.431 90.1559 16.6704 87.7726C16.9098 85.3894 17.7655 83.1191 19.146 81.2049C20.5264 79.2907 22.3795 77.8047 24.5068 76.9061V41.2764C24.5068 39.9627 25.0065 38.7029 25.896 37.774C26.7856 36.8451 27.992 36.3232 29.25 36.3232C30.508 36.3232 31.7144 36.8451 32.604 37.774C33.4935 38.7029 33.9932 39.9627 33.9932 41.2764V76.9061C36.3299 77.8932 38.3308 79.5867 39.7394 81.7695C41.1479 83.9523 41.8998 86.5248 41.8986 89.157Z" fill="#7280FF"/>
<path d="M41.8986 89.157C41.8975 91.5532 41.2722 93.9041 40.0896 95.9576C38.907 98.0112 37.2117 99.6901 35.1853 100.815C33.159 101.939 30.8778 102.467 28.5862 102.341C26.2947 102.215 24.0791 101.441 22.1767 100.101C20.2743 98.7608 18.7568 96.9055 17.7869 94.7339C16.8169 92.5622 16.4309 90.1559 16.6704 87.7727C16.9098 85.3894 17.7655 83.1191 19.1459 81.2049C20.5264 79.2907 22.3795 77.8047 24.5067 76.9061V41.2764C24.5067 39.9627 25.0065 38.7029 25.896 37.774C26.7855 36.8451 27.992 36.3232 29.25 36.3232C30.508 36.3232 31.7144 36.8451 32.6039 37.774C33.4935 38.7029 33.9932 39.9627 33.9932 41.2764V76.9061C36.3298 77.8932 38.3308 79.5867 39.7393 81.7695C41.1479 83.9523 41.8998 86.5248 41.8986 89.157Z" fill="#FF7272"/>
</svg>
